<svg xmlns="http://www.w3.org/2000/svg" viewBox="0 0 1200 1100" font-family="'Segoe UI', system-ui, sans-serif">
  <defs>
    <marker id="arr" markerWidth="10" markerHeight="10" refX="8" refY="4" orient="auto">
      <path d="M0,0 L0,8 L10,4 z" fill="#60a5fa"/>
    </marker>
    <marker id="arrG" markerWidth="10" markerHeight="10" refX="8" refY="4" orient="auto">
      <path d="M0,0 L0,8 L10,4 z" fill="#22c55e"/>
    </marker>
    <marker id="arrA" markerWidth="10" markerHeight="10" refX="8" refY="4" orient="auto">
      <path d="M0,0 L0,8 L10,4 z" fill="#f59e0b"/>
    </marker>
    <marker id="arrP" markerWidth="10" markerHeight="10" refX="8" refY="4" orient="auto">
      <path d="M0,0 L0,8 L10,4 z" fill="#a855f7"/>
    </marker>
    <linearGradient id="heroGrad" x1="0" y1="0" x2="1" y2="1">
      <stop offset="0%" stop-color="#1e3a5f"/>
      <stop offset="100%" stop-color="#0f172a"/>
    </linearGradient>
  </defs>

  <!-- Background -->
  <rect width="1200" height="1100" fill="#0f172a"/>

  <!-- Title block -->
  <rect x="0" y="0" width="1200" height="82" fill="url(#heroGrad)"/>
  <text x="600" y="38" text-anchor="middle" font-size="30" font-weight="700" fill="#f1f5f9">Agent2Agent (A2A) Protocol</text>
  <text x="600" y="62" text-anchor="middle" font-size="15" fill="#94a3b8">An open standard by Google for seamless AI agent-to-agent communication — framework, model, and vendor agnostic</text>
  <line x1="80" y1="82" x2="1120" y2="82" stroke="#334155" stroke-width="1"/>

  <!-- ================================================================
       SECTION 1 — WHAT IS A2A (left)  +  VISUAL HUB DIAGRAM (right)
  ================================================================= -->

  <!-- What is A2A card -->
  <rect x="50" y="100" width="530" height="260" rx="14" fill="#1e293b" stroke="#3b82f6" stroke-width="1.5"/>
  <rect x="50" y="100" width="530" height="38" rx="14" fill="#1e3a5f"/>
  <rect x="50" y="124" width="530" height="14" fill="#1e3a5f"/>
  <text x="315" y="125" text-anchor="middle" font-size="16" font-weight="700" fill="#60a5fa">What is A2A?</text>

  <text x="78" y="160" font-size="14" fill="#e2e8f0">A2A is an </text>
  <text x="146" y="160" font-size="14" font-weight="700" fill="#60a5fa">open protocol</text>
  <text x="264" y="160" font-size="14" fill="#e2e8f0"> that lets AI agents:</text>

  <circle cx="88" cy="186" r="5" fill="#3b82f6"/>
  <text x="102" y="191" font-size="13" fill="#cbd5e1">Discover each other's capabilities via </text>
  <text x="364" y="191" font-size="13" font-weight="600" fill="#60a5fa">AgentCard</text>

  <circle cx="88" cy="212" r="5" fill="#3b82f6"/>
  <text x="102" y="217" font-size="13" fill="#cbd5e1">Communicate as </text>
  <text x="222" y="217" font-size="13" font-weight="600" fill="#60a5fa">collaborative peers</text>
  <text x="385" y="217" font-size="13" fill="#cbd5e1">, not dumb tools</text>

  <circle cx="88" cy="238" r="5" fill="#3b82f6"/>
  <text x="102" y="243" font-size="13" fill="#cbd5e1">Delegate and track work via stateful </text>
  <text x="354" y="243" font-size="13" font-weight="600" fill="#60a5fa">Tasks</text>

  <circle cx="88" cy="264" r="5" fill="#3b82f6"/>
  <text x="102" y="269" font-size="13" fill="#cbd5e1">Stream partial results with </text>
  <text x="304" y="269" font-size="13" font-weight="600" fill="#60a5fa">Server-Sent Events</text>

  <circle cx="88" cy="290" r="5" fill="#3b82f6"/>
  <text x="102" y="295" font-size="13" fill="#cbd5e1">Work across any framework, model, or vendor</text>

  <!-- Built on badges -->
  <text x="78" y="326" font-size="12" fill="#64748b">BUILT ON:</text>
  <rect x="140" y="312" width="64" height="24" rx="6" fill="#1e3a5f" stroke="#334155" stroke-width="1"/>
  <text x="172" y="329" text-anchor="middle" font-size="12" font-weight="600" fill="#60a5fa">HTTP</text>
  <rect x="212" y="312" width="88" height="24" rx="6" fill="#1e3a5f" stroke="#334155" stroke-width="1"/>
  <text x="256" y="329" text-anchor="middle" font-size="12" font-weight="600" fill="#60a5fa">JSON-RPC</text>
  <rect x="308" y="312" width="60" height="24" rx="6" fill="#1e3a5f" stroke="#334155" stroke-width="1"/>
  <text x="338" y="329" text-anchor="middle" font-size="12" font-weight="600" fill="#60a5fa">SSE</text>
  <rect x="376" y="312" width="76" height="24" rx="6" fill="#1e3a5f" stroke="#334155" stroke-width="1"/>
  <text x="414" y="329" text-anchor="middle" font-size="12" font-weight="600" fill="#60a5fa">OAuth 2</text>
  <rect x="460" y="312" width="64" height="24" rx="6" fill="#1e3a5f" stroke="#334155" stroke-width="1"/>
  <text x="492" y="329" text-anchor="middle" font-size="12" font-weight="600" fill="#60a5fa">TLS</text>
  <text x="78" y="352" font-size="12" fill="#475569">No custom transport, encoding, or proprietary format.</text>

  <!-- ===== VISUAL: Agent hub diagram ===== -->
  <rect x="620" y="100" width="530" height="260" rx="14" fill="#1e293b" stroke="#22c55e" stroke-width="1.5"/>
  <rect x="620" y="100" width="530" height="38" rx="14" fill="#052e16"/>
  <rect x="620" y="124" width="530" height="14" fill="#052e16"/>
  <text x="885" y="125" text-anchor="middle" font-size="16" font-weight="700" fill="#4ade80">How Agents Communicate</text>

  <!-- Central A2A hub -->
  <circle cx="885" cy="243" r="40" fill="#0f172a" stroke="#3b82f6" stroke-width="2"/>
  <text x="885" y="238" text-anchor="middle" font-size="14" font-weight="700" fill="#60a5fa">A2A</text>
  <text x="885" y="254" text-anchor="middle" font-size="10" fill="#94a3b8">Protocol</text>

  <!-- Agent nodes around hub -->
  <!-- Agent A (top-left) -->
  <rect x="660" y="145" width="110" height="46" rx="8" fill="#0f172a" stroke="#a855f7" stroke-width="1.5"/>
  <text x="715" y="163" text-anchor="middle" font-size="11" font-weight="600" fill="#c084fc">Agent A</text>
  <text x="715" y="181" text-anchor="middle" font-size="10" fill="#64748b">LangChain</text>
  <line x1="770" y1="180" x2="848" y2="220" stroke="#a855f7" stroke-width="1.2" marker-end="url(#arrP)"/>

  <!-- Agent B (top-right) -->
  <rect x="1000" y="145" width="110" height="46" rx="8" fill="#0f172a" stroke="#f59e0b" stroke-width="1.5"/>
  <text x="1055" y="163" text-anchor="middle" font-size="11" font-weight="600" fill="#fbbf24">Agent B</text>
  <text x="1055" y="181" text-anchor="middle" font-size="10" fill="#64748b">CrewAI</text>
  <line x1="1000" y1="180" x2="922" y2="220" stroke="#f59e0b" stroke-width="1.2" marker-end="url(#arrA)"/>

  <!-- Agent C (bottom-left) -->
  <rect x="660" y="290" width="110" height="46" rx="8" fill="#0f172a" stroke="#22c55e" stroke-width="1.5"/>
  <text x="715" y="308" text-anchor="middle" font-size="11" font-weight="600" fill="#4ade80">Agent C</text>
  <text x="715" y="326" text-anchor="middle" font-size="10" fill="#64748b">Custom Python</text>
  <line x1="770" y1="300" x2="848" y2="266" stroke="#22c55e" stroke-width="1.2" marker-end="url(#arrG)"/>

  <!-- Agent D (bottom-right) -->
  <rect x="1000" y="290" width="110" height="46" rx="8" fill="#0f172a" stroke="#ec4899" stroke-width="1.5"/>
  <text x="1055" y="308" text-anchor="middle" font-size="11" font-weight="600" fill="#f472b6">Agent D</text>
  <text x="1055" y="326" text-anchor="middle" font-size="10" fill="#64748b">LangGraph</text>
  <line x1="1000" y1="300" x2="922" y2="266" stroke="#ec4899" stroke-width="1.2"/>

  <!-- Cross-arrows between agents (via hub) -->
  <text x="885" y="350" text-anchor="middle" font-size="11" fill="#475569">Any agent can call any agent — no custom glue code needed</text>

  <!-- ================================================================
       SECTION 2 — BEFORE vs AFTER A2A
  ================================================================= -->
  <text x="600" y="396" text-anchor="middle" font-size="18" font-weight="700" fill="#e2e8f0">Before A2A vs. With A2A</text>
  <line x1="200" y1="408" x2="1000" y2="408" stroke="#334155" stroke-width="1"/>

  <!-- BEFORE column -->
  <rect x="50" y="420" width="530" height="192" rx="14" fill="#1e293b" stroke="#ef4444" stroke-width="1.5"/>
  <rect x="50" y="420" width="530" height="38" rx="14" fill="#1c0505"/>
  <rect x="50" y="444" width="530" height="14" fill="#1c0505"/>
  <text x="100" y="445" font-size="15" font-weight="700" fill="#f87171">Without A2A</text>

  <rect x="70" y="466" width="490" height="40" rx="8" fill="#0f172a" stroke="#7f1d1d" stroke-width="1"/>
  <text x="80" y="482" font-size="12" fill="#fca5a5">Custom point-to-point integration</text>
  <text x="80" y="498" font-size="11" fill="#64748b">N agents = N*(N-1)/2 custom connectors — brittle, impossible to maintain at scale</text>

  <rect x="70" y="514" width="490" height="40" rx="8" fill="#0f172a" stroke="#7f1d1d" stroke-width="1"/>
  <text x="80" y="530" font-size="12" fill="#fca5a5">Agents wrapped as "tools"</text>
  <text x="80" y="546" font-size="11" fill="#64748b">Lose autonomy, multi-turn conversation, async support — treated as simple functions</text>

  <rect x="70" y="562" width="490" height="40" rx="8" fill="#0f172a" stroke="#7f1d1d" stroke-width="1"/>
  <text x="80" y="578" font-size="12" fill="#fca5a5">Framework lock-in</text>
  <text x="80" y="594" font-size="11" fill="#64748b">Each vendor has a proprietary way to connect agents — no interoperability across stacks</text>

  <!-- AFTER column -->
  <rect x="620" y="420" width="530" height="192" rx="14" fill="#1e293b" stroke="#22c55e" stroke-width="1.5"/>
  <rect x="620" y="420" width="530" height="38" rx="14" fill="#052e16"/>
  <rect x="620" y="444" width="530" height="14" fill="#052e16"/>
  <text x="670" y="445" font-size="15" font-weight="700" fill="#4ade80">With A2A Protocol</text>

  <rect x="640" y="466" width="490" height="40" rx="8" fill="#0f172a" stroke="#166534" stroke-width="1"/>
  <text x="650" y="482" font-size="12" fill="#86efac">Standardized discovery + messaging</text>
  <text x="650" y="498" font-size="11" fill="#64748b">AgentCard advertises skills. Any client can query and invoke — no per-pair wiring needed</text>

  <rect x="640" y="514" width="490" height="40" rx="8" fill="#0f172a" stroke="#166534" stroke-width="1"/>
  <text x="650" y="530" font-size="12" fill="#86efac">Agents remain autonomous peers</text>
  <text x="650" y="546" font-size="11" fill="#64748b">Multi-turn, long-running Tasks. Agents negotiate, delegate, and return Artifacts</text>

  <rect x="640" y="562" width="490" height="40" rx="8" fill="#0f172a" stroke="#166534" stroke-width="1"/>
  <text x="650" y="578" font-size="12" fill="#86efac">Framework + model agnostic</text>
  <text x="650" y="594" font-size="11" fill="#64748b">LangChain, CrewAI, custom Python, Java — all interoperate via HTTP + JSON-RPC</text>

  <!-- ================================================================
       SECTION 3 — 5 DESIGN PRINCIPLES (wider cards, more detail)
  ================================================================= -->
  <text x="600" y="646" text-anchor="middle" font-size="18" font-weight="700" fill="#e2e8f0">5 Core Design Principles</text>
  <line x1="120" y1="658" x2="1080" y2="658" stroke="#334155" stroke-width="1"/>

  <!-- Row of 5 cards — each 210px wide -->
  <!-- 1 Simplicity -->
  <rect x="30" y="670" width="218" height="160" rx="12" fill="#1e293b" stroke="#3b82f6" stroke-width="1.5"/>
  <circle cx="70" cy="696" r="16" fill="#1e3a5f" stroke="#3b82f6" stroke-width="1.2"/>
  <text x="70" y="701" text-anchor="middle" font-size="14" font-weight="700" fill="#60a5fa">1</text>
  <text x="95" y="700" font-size="14" font-weight="700" fill="#93c5fd">Simplicity</text>
  <line x1="50" y1="714" x2="228" y2="714" stroke="#334155" stroke-width="0.5"/>
  <text x="50" y="732" font-size="11" fill="#cbd5e1">Built on existing, proven</text>
  <text x="50" y="748" font-size="11" fill="#cbd5e1">web standards. No new</text>
  <text x="50" y="764" font-size="11" fill="#cbd5e1">protocols to learn.</text>
  <text x="50" y="788" font-size="10" fill="#475569">HTTP endpoints + JSON-RPC 2.0</text>
  <text x="50" y="804" font-size="10" fill="#475569">SSE for streaming, standard OAuth</text>
  <text x="50" y="820" font-size="10" fill="#475569">TLS encryption in transit</text>

  <!-- 2 Enterprise Ready -->
  <rect x="262" y="670" width="218" height="160" rx="12" fill="#1e293b" stroke="#a855f7" stroke-width="1.5"/>
  <circle cx="302" cy="696" r="16" fill="#2a1a3e" stroke="#a855f7" stroke-width="1.2"/>
  <text x="302" y="701" text-anchor="middle" font-size="14" font-weight="700" fill="#c084fc">2</text>
  <text x="327" y="700" font-size="14" font-weight="700" fill="#c084fc">Enterprise Ready</text>
  <line x1="282" y1="714" x2="460" y2="714" stroke="#334155" stroke-width="0.5"/>
  <text x="282" y="732" font-size="11" fill="#cbd5e1">Security, auth, tracing,</text>
  <text x="282" y="748" font-size="11" fill="#cbd5e1">and monitoring baked into</text>
  <text x="282" y="764" font-size="11" fill="#cbd5e1">the protocol from day one.</text>
  <text x="282" y="788" font-size="10" fill="#475569">OAuth 2.0 + JWT token exchange</text>
  <text x="282" y="804" font-size="10" fill="#475569">Rate limiting, scoped permissions</text>
  <text x="282" y="820" font-size="10" fill="#475569">Distributed tracing hooks</text>

  <!-- 3 Async Native -->
  <rect x="494" y="670" width="218" height="160" rx="12" fill="#1e293b" stroke="#22c55e" stroke-width="1.5"/>
  <circle cx="534" cy="696" r="16" fill="#052e16" stroke="#22c55e" stroke-width="1.2"/>
  <text x="534" y="701" text-anchor="middle" font-size="14" font-weight="700" fill="#4ade80">3</text>
  <text x="559" y="700" font-size="14" font-weight="700" fill="#4ade80">Async Native</text>
  <line x1="514" y1="714" x2="692" y2="714" stroke="#334155" stroke-width="0.5"/>
  <text x="514" y="732" font-size="11" fill="#cbd5e1">Long-running tasks, real-</text>
  <text x="514" y="748" font-size="11" fill="#cbd5e1">time streaming, and push</text>
  <text x="514" y="764" font-size="11" fill="#cbd5e1">notifications — first-class.</text>
  <text x="514" y="788" font-size="10" fill="#475569">sendMessageStream (SSE)</text>
  <text x="514" y="804" font-size="10" fill="#475569">getTask polling for sync clients</text>
  <text x="514" y="820" font-size="10" fill="#475569">Webhook push notifications</text>

  <!-- 4 Modality Free -->
  <rect x="726" y="670" width="218" height="160" rx="12" fill="#1e293b" stroke="#f59e0b" stroke-width="1.5"/>
  <circle cx="766" cy="696" r="16" fill="#2d1f00" stroke="#f59e0b" stroke-width="1.2"/>
  <text x="766" y="701" text-anchor="middle" font-size="14" font-weight="700" fill="#fbbf24">4</text>
  <text x="791" y="700" font-size="14" font-weight="700" fill="#fbbf24">Modality Free</text>
  <line x1="746" y1="714" x2="924" y2="714" stroke="#334155" stroke-width="0.5"/>
  <text x="746" y="732" font-size="11" fill="#cbd5e1">Not limited to text — any</text>
  <text x="746" y="748" font-size="11" fill="#cbd5e1">content type via the Part</text>
  <text x="746" y="764" font-size="11" fill="#cbd5e1">abstraction in messages.</text>
  <text x="746" y="788" font-size="10" fill="#475569">TextPart — plain text / markdown</text>
  <text x="746" y="804" font-size="10" fill="#475569">FilePart — binary inline or URL ref</text>
  <text x="746" y="820" font-size="10" fill="#475569">DataPart — structured JSON data</text>

  <!-- 5 Opaque Execution -->
  <rect x="958" y="670" width="218" height="160" rx="12" fill="#1e293b" stroke="#ec4899" stroke-width="1.5"/>
  <circle cx="998" cy="696" r="16" fill="#2d0a1e" stroke="#ec4899" stroke-width="1.2"/>
  <text x="998" y="701" text-anchor="middle" font-size="14" font-weight="700" fill="#f472b6">5</text>
  <text x="1023" y="700" font-size="14" font-weight="700" fill="#f472b6">Opaque Execution</text>
  <line x1="978" y1="714" x2="1156" y2="714" stroke="#334155" stroke-width="0.5"/>
  <text x="978" y="732" font-size="11" fill="#cbd5e1">Internal logic, prompts,</text>
  <text x="978" y="748" font-size="11" fill="#cbd5e1">tools, and models stay</text>
  <text x="978" y="764" font-size="11" fill="#cbd5e1">hidden. Only the interface.</text>
  <text x="978" y="788" font-size="10" fill="#475569">AgentCard exposes only skills</text>
  <text x="978" y="804" font-size="10" fill="#475569">No prompt or tool leakage</text>
  <text x="978" y="820" font-size="10" fill="#475569">Black-box collaboration model</text>

  <!-- ================================================================
       SECTION 4 — A2A vs MCP LAYERED ARCHITECTURE
  ================================================================= -->
  <text x="600" y="868" text-anchor="middle" font-size="18" font-weight="700" fill="#e2e8f0">A2A + MCP — Complementary, Not Competing</text>
  <line x1="120" y1="880" x2="1080" y2="880" stroke="#334155" stroke-width="1"/>

  <!-- Layered diagram -->
  <!-- Layer: A2A -->
  <rect x="100" y="894" width="480" height="80" rx="12" fill="#1e293b" stroke="#3b82f6" stroke-width="2"/>
  <text x="340" y="920" text-anchor="middle" font-size="16" font-weight="700" fill="#60a5fa">A2A — Agent-to-Agent</text>
  <text x="340" y="940" text-anchor="middle" font-size="13" fill="#94a3b8">Agents as </text>
  <text x="382" y="940" font-size="13" font-weight="600" fill="#60a5fa">autonomous peers</text>
  <text x="340" y="958" text-anchor="middle" font-size="12" fill="#64748b">Discovery, delegation, multi-turn Tasks, streaming, Artifacts</text>

  <!-- Layer: MCP -->
  <rect x="620" y="894" width="480" height="80" rx="12" fill="#1e293b" stroke="#a855f7" stroke-width="2"/>
  <text x="860" y="920" text-anchor="middle" font-size="16" font-weight="700" fill="#c084fc">MCP — Model Context Protocol</text>
  <text x="860" y="940" text-anchor="middle" font-size="13" fill="#94a3b8">LLMs connected to </text>
  <text x="930" y="940" font-size="13" font-weight="600" fill="#c084fc">tools &amp; data</text>
  <text x="860" y="958" text-anchor="middle" font-size="12" fill="#64748b">Tool exposure, resource access, function calling, context injection</text>

  <!-- Overlap / synergy zone -->
  <rect x="200" y="986" width="800" height="46" rx="10" fill="#0f172a" stroke="#22c55e" stroke-width="1.5"/>
  <text x="600" y="1008" text-anchor="middle" font-size="13" fill="#4ade80">Together: an agent can use MCP for its internal tools, then expose its capabilities to other agents via A2A</text>
  <text x="600" y="1024" text-anchor="middle" font-size="12" fill="#475569">Example: Tax Agent uses MCP to query a tax database, then responds to Law Agent's A2A Task with structured Artifacts</text>

  <!-- ================================================================
       SECTION 5 — 4-STEP LIFECYCLE OVERVIEW
  ================================================================= -->
  <text x="600" y="1058" text-anchor="middle" font-size="18" font-weight="700" fill="#e2e8f0">Request Lifecycle — 4 Phases</text>
  <line x1="80" y1="1067" x2="1120" y2="1067" stroke="#334155" stroke-width="1"/>

  <!-- Phase boxes with arrows -->
  <rect x="30" y="1076" width="260" height="20" rx="6" fill="#1e3a5f" stroke="#3b82f6" stroke-width="1"/>
  <text x="160" y="1091" text-anchor="middle" font-size="12" font-weight="700" fill="#60a5fa">1. Discover Agent</text>

  <line x1="290" y1="1086" x2="310" y2="1086" stroke="#60a5fa" stroke-width="1.5" marker-end="url(#arr)"/>

  <rect x="310" y="1076" width="260" height="20" rx="6" fill="#2a1a3e" stroke="#a855f7" stroke-width="1"/>
  <text x="440" y="1091" text-anchor="middle" font-size="12" font-weight="700" fill="#c084fc">2. Authenticate (OAuth)</text>

  <line x1="570" y1="1086" x2="590" y2="1086" stroke="#60a5fa" stroke-width="1.5" marker-end="url(#arr)"/>

  <rect x="590" y="1076" width="260" height="20" rx="6" fill="#052e16" stroke="#22c55e" stroke-width="1"/>
  <text x="720" y="1091" text-anchor="middle" font-size="12" font-weight="700" fill="#4ade80">3. sendMessage (Task)</text>

  <line x1="850" y1="1086" x2="870" y2="1086" stroke="#60a5fa" stroke-width="1.5" marker-end="url(#arr)"/>

  <rect x="870" y="1076" width="300" height="20" rx="6" fill="#2d1f00" stroke="#f59e0b" stroke-width="1"/>
  <text x="1020" y="1091" text-anchor="middle" font-size="12" font-weight="700" fill="#fbbf24">4. Stream / Poll Results</text>
</svg>